<svg viewBox="0 0 20 20" fill="#7B7B7B" xmlns="http://www.w3.org/2000/svg">
  <path fill-rule="evenodd" clip-rule="evenodd" d="M6.87935 5.71163C6.87935 5.71163 6.5135 5.34577 6.5135 4.82837C6.5135 4.82837 6.5135 4.31097 6.87935 3.94511L9.12063 1.70384C9.12063 1.70384 9.48648 1.33798 10.0039 1.33798C10.0039 1.33798 10.5213 1.33798 10.8871 1.70384L13.1268 3.94345C13.1268 3.94345 13.4926 4.30931 13.4926 4.82671C13.4926 4.82671 13.4926 5.34411 13.1268 5.70997L10.8855 7.95124C10.8855 7.95124 10.5196 8.3171 10.0022 8.3171C10.0022 8.3171 9.48483 8.3171 9.11897 7.95124L6.87935 5.71163ZM7.76261 4.82837L10.0022 7.06798L12.2435 4.82671L10.0039 2.5871L7.76261 4.82837Z" />
  <path fill-rule="evenodd" clip-rule="evenodd" d="M11.8774 10.7082C11.8774 10.7082 11.5115 10.3424 11.5115 9.82495C11.5115 9.82495 11.5115 9.30755 11.8774 8.94169L14.1187 6.70042C14.1187 6.70042 14.4845 6.33456 15.0019 6.33456C15.0019 6.33456 15.5193 6.33456 15.8852 6.70042L18.1248 8.94003C18.1248 8.94003 18.4907 9.30589 18.4907 9.82329C18.4907 9.82329 18.4907 10.3407 18.1248 10.7066L15.8835 12.9478C15.8835 12.9478 15.5177 13.3137 15.0003 13.3137C15.0003 13.3137 14.4829 13.3137 14.117 12.9478L11.8774 10.7082ZM12.7607 9.82495L15.0003 12.0646L17.2415 9.82329L15.0019 7.58368L12.7607 9.82495Z" />
  <path fill-rule="evenodd" clip-rule="evenodd" d="M1.88326 10.7009C1.88326 10.7009 1.5174 10.335 1.5174 9.81763C1.5174 9.81763 1.5174 9.30023 1.88326 8.93437L4.12453 6.6931C4.12453 6.6931 4.49039 6.32724 5.00779 6.32724C5.00779 6.32724 5.52519 6.32724 5.89105 6.6931L8.13067 8.93271C8.13067 8.93271 8.49652 9.29857 8.49652 9.81597C8.49652 9.81597 8.49652 10.3334 8.13067 10.6992L5.88939 12.9405C5.88939 12.9405 5.52354 13.3064 5.00613 13.3064C5.00613 13.3064 4.48873 13.3064 4.12288 12.9405L1.88326 10.7009ZM2.76652 9.81763L5.00613 12.0572L7.24741 9.81597L5.00779 7.57636L2.76652 9.81763Z" />
  <path fill-rule="evenodd" clip-rule="evenodd" d="M6.88131 15.6977C6.88131 15.6977 6.51545 15.3319 6.51545 14.8145C6.51545 14.8145 6.51545 14.2971 6.88131 13.9312L9.12258 11.6899C9.12258 11.6899 9.48844 11.3241 10.0058 11.3241C10.0058 11.3241 10.5232 11.3241 10.8891 11.6899L13.1287 13.9295C13.1287 13.9295 13.4946 14.2954 13.4946 14.8128C13.4946 14.8128 13.4946 15.3302 13.1287 15.6961L10.8874 17.9373C10.8874 17.9373 10.5216 18.3032 10.0042 18.3032C10.0042 18.3032 9.48678 18.3032 9.12092 17.9373L6.88131 15.6977ZM7.76457 14.8145L10.0042 17.0541L12.2455 14.8128L10.0058 12.5732L7.76457 14.8145Z" />
</svg>
