<svg width="12" height="14" viewBox="0 0 12 14" fill="none" xmlns="http://www.w3.org/2000/svg">
    <path d="M8.475 7.18118C8.87518 6.80082 9.19616 6.33037 9.41616 5.80178C9.63615 5.27319 9.75001 4.69882 9.75 4.11765C9.75 3.02558 9.35491 1.97824 8.65165 1.20603C7.94839 0.433822 6.99456 0 6 0C5.00544 0 4.05161 0.433822 3.34835 1.20603C2.64509 1.97824 2.25 3.02558 2.25 4.11765C2.24999 4.69882 2.36385 5.27319 2.58384 5.80178C2.80384 6.33037 3.12482 6.80082 3.525 7.18118C2.4751 7.7032 1.58435 8.5462 0.959235 9.60939C0.334121 10.6726 0.00110389 11.911 0 13.1765C0 13.3949 0.0790176 13.6044 0.21967 13.7588C0.360322 13.9132 0.551088 14 0.75 14C0.948912 14 1.13968 13.9132 1.28033 13.7588C1.42098 13.6044 1.5 13.3949 1.5 13.1765C1.5 11.866 1.97411 10.6092 2.81802 9.68253C3.66193 8.75588 4.80653 8.23529 6 8.23529C7.19347 8.23529 8.33807 8.75588 9.18198 9.68253C10.0259 10.6092 10.5 11.866 10.5 13.1765C10.5 13.3949 10.579 13.6044 10.7197 13.7588C10.8603 13.9132 11.0511 14 11.25 14C11.4489 14 11.6397 13.9132 11.7803 13.7588C11.921 13.6044 12 13.3949 12 13.1765C11.9989 11.911 11.6659 10.6726 11.0408 9.60939C10.4157 8.5462 9.5249 7.7032 8.475 7.18118ZM6 6.58823C5.55499 6.58823 5.11998 6.44334 4.74997 6.17187C4.37996 5.90039 4.09157 5.51454 3.92127 5.0631C3.75097 4.61166 3.70642 4.11491 3.79323 3.63566C3.88005 3.15641 4.09434 2.7162 4.40901 2.37068C4.72368 2.02516 5.12459 1.78986 5.56105 1.69453C5.9975 1.5992 6.4499 1.64813 6.86104 1.83512C7.27217 2.02211 7.62357 2.33878 7.87081 2.74506C8.11804 3.15135 8.25 3.62901 8.25 4.11765C8.25 4.77289 8.01295 5.40129 7.59099 5.86462C7.16903 6.32794 6.59674 6.58823 6 6.58823Z" fill="white"/>
</svg>
