<svg width="38" height="38" viewBox="0 0 38 38" fill="none" xmlns="http://www.w3.org/2000/svg">
    <path d="M13.8943 8.66701L18.1557 4.40562C18.6196 3.94196 19.3713 3.94196 19.8351 4.40562L24.0933 8.66398C24.5571 9.12765 24.5571 9.87959 24.0933 10.3434L19.832 14.6047C19.3682 15.0685 18.6164 15.0686 18.1526 14.6047L13.8944 10.3465C13.4306 9.88267 13.4305 9.13082 13.8943 8.66701Z" fill="white" fill-opacity="0.1"/>
    <path d="M23.3944 18.1671L27.6558 13.9057C28.1196 13.442 28.8714 13.442 29.3352 13.9057L33.5935 18.164C34.0572 18.6278 34.0572 19.3797 33.5935 19.8434L29.3319 24.1046C28.8683 24.5686 28.1164 24.5686 27.6527 24.1047L23.3944 19.8466C22.9305 19.3826 22.9306 18.6309 23.3944 18.1671Z" fill="white" fill-opacity="0.1"/>
    <path d="M4.3944 18.1534L8.65578 13.8921C9.11955 13.4283 9.87145 13.4284 10.3352 13.8921L14.5935 18.1504C15.0572 18.6141 15.0571 19.3659 14.5935 19.8298L10.3319 24.0909C9.86827 24.555 9.11637 24.5549 8.65266 24.091L4.39435 19.8329C3.93064 19.369 3.93064 18.6172 4.3944 18.1534Z" fill="white" fill-opacity="0.1"/>
    <path d="M13.8943 27.6533L18.1557 23.392C18.6195 22.9283 19.3713 22.9283 19.835 23.392L24.0934 27.6503C24.5571 28.114 24.5571 28.8659 24.0934 29.3296L19.832 33.591C19.3682 34.0549 18.6164 34.0549 18.1526 33.591L13.8943 29.3329C13.4306 28.869 13.4306 28.1172 13.8943 27.6533Z" fill="white" fill-opacity="0.1"/>
    <path fill-rule="evenodd" clip-rule="evenodd" d="M13.0544 11.1862C13.0544 11.1862 12.3588 10.4906 12.3588 9.50684C12.3588 9.50684 12.3588 8.52308 13.0544 7.82746L17.3158 3.56603C17.3158 3.56603 18.0114 2.87041 18.9952 2.87041C18.9952 2.87041 19.9789 2.87041 20.6746 3.56603L24.9328 7.82431C24.9328 7.82431 25.6285 8.51993 25.6285 9.50369C25.6285 9.50369 25.6285 10.4874 24.9328 11.1831L20.6714 15.4445C20.6714 15.4445 19.9758 16.1401 18.992 16.1401C18.992 16.1401 18.0083 16.1401 17.3127 15.4445L13.0544 11.1862ZM14.7338 9.50684L18.992 13.7651L23.2535 9.50369L18.9952 5.24541L14.7338 9.50684Z" fill="#1C1C1C"/>
    <path fill-rule="evenodd" clip-rule="evenodd" d="M22.5563 20.6862C22.5563 20.6862 21.8607 19.9906 21.8607 19.0068C21.8607 19.0068 21.8607 18.0231 22.5563 17.3275L26.8178 13.066C26.8178 13.066 27.5134 12.3704 28.4971 12.3704C28.4971 12.3704 29.4809 12.3704 30.1765 13.066L34.4348 17.3243C34.4348 17.3243 35.1304 18.0199 35.1304 19.0037C35.1304 19.0037 35.1304 19.9874 34.4348 20.6831L30.1734 24.9445C30.1734 24.9445 29.4777 25.6401 28.494 25.6401C28.494 25.6401 27.5102 25.6401 26.8146 24.9445L22.5563 20.6862ZM24.2357 19.0068L28.494 23.2651L32.7554 19.0037L28.4971 14.7454L24.2357 19.0068Z" fill="#1C1C1C"/>
    <path fill-rule="evenodd" clip-rule="evenodd" d="M3.55438 20.6725C3.55438 20.6725 2.85876 19.9769 2.85876 18.9932C2.85876 18.9932 2.85876 18.0094 3.55438 17.3138L7.8158 13.0524C7.8158 13.0524 8.51142 12.3567 9.49518 12.3567C9.49518 12.3567 10.4789 12.3567 11.1746 13.0524L15.4328 17.3106C15.4328 17.3106 16.1285 18.0063 16.1285 18.99C16.1285 18.99 16.1285 19.9738 15.4328 20.6694L11.1714 24.9308C11.1714 24.9308 10.4758 25.6264 9.49203 25.6264C9.49203 25.6264 8.50827 25.6264 7.81265 24.9308L3.55438 20.6725ZM5.23376 18.9932L9.49203 23.2514L13.7535 18.99L9.49518 14.7317L5.23376 18.9932Z" fill="#1C1C1C"/>
    <path fill-rule="evenodd" clip-rule="evenodd" d="M13.0563 30.1725C13.0563 30.1725 12.3607 29.4769 12.3607 28.4932C12.3607 28.4932 12.3607 27.5094 13.0563 26.8138L17.3178 22.5524C17.3178 22.5524 18.0134 21.8567 18.9971 21.8567C18.9971 21.8567 19.9809 21.8567 20.6765 22.5524L24.9348 26.8106C24.9348 26.8106 25.6304 27.5063 25.6304 28.49C25.6304 28.49 25.6304 29.4738 24.9348 30.1694L20.6734 34.4308C20.6734 34.4308 19.9777 35.1264 18.994 35.1264C18.994 35.1264 18.0102 35.1264 17.3146 34.4308L13.0563 30.1725ZM14.7357 28.4932L18.994 32.7514L23.2554 28.49L18.9971 24.2317L14.7357 28.4932Z" fill="#1C1C1C"/>
</svg>
