<svg width="19" height="22" viewBox="0 0 19 22" fill="#00f" xmlns="http://www.w3.org/2000/svg">
    <g clip-path="url(#clip0_45_16146)">
        <path d="M4.03443 22C3.82132 21.9349 3.64696 21.8227 3.55224 21.6004C3.36281 21.1537 3.67064 20.6553 4.13991 20.6531C5.09784 20.6509 6.05576 20.6531 7.01369 20.6531C7.05674 20.6531 7.0998 20.6531 7.14931 20.6531C7.14931 19.5149 7.14931 18.3835 7.14931 17.2476C6.91897 17.2229 6.68649 17.2049 6.45831 17.1758C5.66614 17.077 4.91271 16.839 4.19373 16.4798C3.3176 16.0421 2.55557 15.4427 1.90547 14.6929C1.09392 13.7568 0.53639 12.6725 0.230715 11.4535C0.0692666 10.8115 -0.00607581 10.1582 0.000382113 9.49596C0.00253475 9.21984 -0.00392317 8.94147 0.00899268 8.66535C0.0219085 8.33984 0.306057 8.07494 0.635412 8.06596C0.954002 8.05698 1.25968 8.32412 1.2769 8.64739C1.29627 9.02453 1.28981 9.40168 1.30058 9.78106C1.31995 10.5398 1.4814 11.2694 1.75909 11.9698C2.14657 12.9419 2.73208 13.7658 3.50919 14.4325C4.32289 15.1329 5.24852 15.5864 6.28825 15.7862C6.84794 15.8939 7.41193 15.9276 7.97592 15.8692C9.17925 15.7435 10.2642 15.299 11.2113 14.5066C12.3221 13.5794 13.0368 12.3896 13.3661 10.9484C13.4759 10.4725 13.519 9.98535 13.5233 9.49596C13.5254 9.21984 13.5211 8.94147 13.5276 8.66535C13.5362 8.33759 13.8096 8.05698 14.1303 8.03902C14.4511 8.02106 14.7675 8.26351 14.7912 8.59351C14.8192 8.9527 14.817 9.31861 14.8084 9.68004C14.7955 10.2951 14.7158 10.9035 14.563 11.5007C14.2896 12.576 13.8139 13.5435 13.1401 14.4056C12.4513 15.2878 11.6139 15.9702 10.6366 16.4709C9.98218 16.8053 9.29334 17.0231 8.57651 17.1511C8.53561 17.1578 8.49255 17.16 8.44735 17.1668C8.44735 18.3319 8.44735 19.4858 8.44735 20.6576C8.4904 20.6576 8.5313 20.6576 8.5722 20.6576C9.48707 20.6576 10.4019 20.6576 11.3168 20.6576C11.6763 20.6576 11.9518 20.8978 11.9906 21.2547C12.025 21.569 11.8356 21.917 11.4804 21.9866C11.4718 21.9888 11.4632 21.9978 11.4546 22.0045C8.98551 22 6.50997 22 4.03443 22Z" fill="white"/>
        <path d="M12.7523 0C13.0127 0.0763265 13.1591 0.262653 13.2754 0.511837C13.8178 1.66347 14.3732 2.80837 14.92 3.95776C14.9523 4.02735 14.991 4.04306 15.0599 4.04306C16.0544 4.04082 17.0468 4.04082 18.0413 4.04082C18.418 4.04082 18.6979 4.32592 18.7 4.7098C18.7022 5.09592 18.418 5.38776 18.037 5.38776C16.8896 5.38776 15.7423 5.38776 14.5928 5.38776C14.3086 5.38776 14.102 5.25531 13.975 4.98816C13.5401 4.07898 13.1031 3.1698 12.6662 2.26061C12.6619 2.25163 12.6554 2.24265 12.6403 2.21571C12.6102 2.28082 12.5822 2.33245 12.5585 2.38857C11.9149 3.80061 11.2712 5.21265 10.6255 6.62469C10.4231 7.06918 9.94091 7.15449 9.57927 6.83571C9.15089 6.45633 8.7096 6.0949 8.27477 5.72449C8.18651 5.64816 8.08964 5.58306 8.00784 5.49776C7.92173 5.40796 7.82702 5.38551 7.71078 5.38551C6.89277 5.39 6.07477 5.38776 5.25676 5.38776C4.88005 5.38776 4.59375 5.09367 4.59375 4.70755C4.59375 4.33265 4.88436 4.04082 5.25676 4.04082C6.18671 4.04082 7.11449 4.04531 8.04444 4.03857C8.25324 4.03633 8.4233 4.10367 8.5826 4.24061C8.98514 4.58857 9.38984 4.93204 9.8053 5.28674C9.82898 5.2351 9.8505 5.19245 9.87203 5.14755C10.5781 3.60082 11.2842 2.05633 11.9859 0.509592C12.0742 0.316531 12.171 0.141429 12.3691 0.0561225C12.41 0.0381633 12.453 0.0202041 12.4939 0.0044898C12.5801 0 12.6662 0 12.7523 0Z" fill="white"/>
        <path d="M2.22498 7.3789C2.22498 6.70543 2.21852 6.03196 2.22713 5.35849C2.2422 4.26747 2.55864 3.27522 3.15923 2.384C3.77273 1.47033 4.58428 0.814816 5.58526 0.421959C6.19876 0.181755 6.83379 0.053796 7.49034 0.0897144C7.79817 0.105429 8.04573 0.406245 8.05218 0.745225C8.06079 1.07747 7.80463 1.38727 7.4925 1.4142C7.14807 1.44339 6.8015 1.45461 6.46353 1.54665C5.75531 1.73747 5.14396 2.0989 4.63163 2.63992C4.09347 3.21012 3.74905 3.88808 3.59406 4.66706C3.54886 4.89604 3.52302 5.13176 3.52302 5.36522C3.51657 6.68522 3.51657 8.00747 3.52087 9.32747C3.52518 10.2524 3.81148 11.0807 4.36686 11.7991C4.98682 12.6028 5.7876 13.1011 6.76706 13.265C7.92302 13.4581 8.96275 13.1707 9.87332 12.3985C10.5858 11.7946 11.0336 11.0134 11.2187 10.0773C11.2768 9.78318 11.2898 9.47788 11.2941 9.17706C11.3048 8.42951 11.2962 7.67971 11.2984 6.93216C11.2984 6.60441 11.462 6.3642 11.7354 6.25869C12.1379 6.1038 12.5813 6.42706 12.5856 6.8491C12.59 7.46645 12.5943 8.08155 12.59 8.6989C12.5878 9.09849 12.5921 9.50033 12.5577 9.89767C12.5168 10.3646 12.4048 10.8203 12.2305 11.2536C11.5309 12.9844 10.306 14.0867 8.55805 14.5401C7.99621 14.686 7.42146 14.7107 6.8424 14.6411C5.85003 14.5222 4.96314 14.1428 4.18173 13.494C3.28193 12.7442 2.6878 11.7834 2.39073 10.625C2.25942 10.1132 2.22283 9.59237 2.22929 9.06257C2.22929 8.50135 2.22283 7.94012 2.22498 7.3789Z" fill="white"/>
    </g>
    <defs>
        <clipPath id="clip0_45_16146">
            <rect width="18.7" height="22" fill="white"/>
        </clipPath>
    </defs>
</svg>
