<svg width="14" height="18" viewBox="0 0 14 18" fill="none" xmlns="http://www.w3.org/2000/svg">
<g clip-path="url(#clip0_45_16629)">
<path d="M11.3578 1.1405C11.3977 1.48634 11.4446 1.81816 11.4727 2.14998C11.5173 2.66173 11.5548 3.17348 11.5852 3.68522C11.604 4.00302 11.597 4.32316 11.611 4.64096C11.6532 5.46349 11.3297 6.13881 10.7835 6.72534C10.3334 7.20905 9.79649 7.58293 9.24322 7.93578C8.78373 8.23021 8.32189 8.51997 7.8624 8.8144C7.80144 8.85412 7.74518 8.90319 7.69126 8.9546C7.59279 9.04573 7.59045 9.08079 7.69829 9.16724C7.81082 9.26072 7.92804 9.35419 8.05229 9.43364C8.60556 9.79116 9.1682 10.1323 9.71444 10.4992C10.2161 10.8333 10.6733 11.2213 11.039 11.7073C11.4141 12.2074 11.6345 12.7635 11.6087 13.3968C11.5735 14.2403 11.536 15.0839 11.4868 15.9251C11.468 16.2312 11.4164 16.535 11.3789 16.8552C11.4305 16.8552 11.4751 16.8552 11.5219 16.8552C11.8431 16.8552 12.162 16.8668 12.4831 16.8505C12.8137 16.8341 13.088 17.1075 13.0903 17.3973C13.0927 17.7408 12.8512 17.9908 12.4949 17.9932C11.9556 17.9978 11.4164 17.9955 10.8796 17.9955C9.47532 17.9955 8.0687 17.9955 6.66443 17.9955C4.65062 17.9955 2.63682 17.9932 0.62301 17.9932C0.390919 17.9932 0.20337 17.909 0.0838076 17.7034C-0.0263774 17.5141 -0.0216886 17.3155 0.0908407 17.1262C0.196337 16.951 0.355753 16.8552 0.564401 16.8528C0.911367 16.8481 1.26068 16.8505 1.60764 16.8505C1.64281 16.8505 1.67563 16.8505 1.71783 16.8505C1.69438 16.6355 1.66625 16.4275 1.6475 16.2219C1.59826 15.6447 1.54903 15.0675 1.51152 14.4904C1.49042 14.1375 1.49511 13.7823 1.48339 13.4295C1.45995 12.7518 1.69438 12.1653 2.10699 11.6419C2.50788 11.1325 3.00957 10.7399 3.54408 10.387C4.07156 10.0389 4.60842 9.70937 5.13825 9.36821C5.23202 9.30745 5.31408 9.22566 5.40316 9.1579C5.49225 9.09013 5.48052 9.02237 5.40082 8.96161C5.2625 8.85412 5.12653 8.74196 4.98118 8.64615C4.37164 8.2489 3.74804 7.87035 3.14789 7.45674C2.62509 7.09688 2.1656 6.66225 1.83973 6.1061C1.60999 5.71353 1.47167 5.29057 1.48339 4.83023C1.50215 4.14089 1.51621 3.45389 1.56075 2.76688C1.59358 2.22943 1.6686 1.69431 1.7272 1.1405C1.68969 1.1405 1.64984 1.1405 1.60764 1.1405C1.26771 1.1405 0.927777 1.14518 0.587845 1.13816C0.14945 1.12882 -0.115463 0.736244 0.0533309 0.343669C0.151794 0.114667 0.339343 0.00484015 0.590189 0.0025034C0.901989 0.000166648 1.21379 0.0025034 1.52559 0.0025034C2.69074 0.0025034 3.85823 0.0025034 5.02337 0.0025034C6.73945 0.0025034 8.45552 0.00484015 10.1692 0.00484015C10.9523 0.00484015 11.7376 0.00484015 12.5206 0.00484015C12.7996 0.00484015 13.0458 0.217485 13.0833 0.486211C13.1231 0.766621 12.9497 1.04002 12.6777 1.1148C12.6003 1.13583 12.516 1.1405 12.4339 1.1405C12.0799 1.14284 11.7236 1.1405 11.3578 1.1405ZM10.3591 16.6332C9.53861 16.6332 8.72278 16.6332 7.90459 16.6332C7.07703 16.6332 6.25182 16.6378 5.42426 16.6378C4.55216 16.6378 3.67771 16.6332 2.80561 16.6355C2.72825 16.6355 2.71184 16.6028 2.7048 16.542C2.65792 16.1495 2.62041 15.7545 2.56414 15.362C2.4985 14.9227 2.67198 14.6095 3.05646 14.4133C3.37763 14.2473 3.70819 14.1001 4.0364 13.9459C4.45604 13.7496 4.88037 13.565 5.29298 13.3547C5.63994 13.1771 5.86031 12.8827 5.9494 12.5018C6.02676 12.17 6.10413 11.8358 6.14632 11.497C6.25182 10.6394 6.26589 9.7748 6.27057 8.9102C6.27057 8.82141 6.26823 8.73027 6.24948 8.64381C6.20024 8.41247 6.04786 8.24423 5.86266 8.11804C5.40551 7.80959 4.93663 7.51516 4.47011 7.21839C3.94262 6.88424 3.43155 6.53139 3.00488 6.06404C2.52898 5.54528 2.42582 4.93071 2.51022 4.26007C2.54304 4.25773 2.57821 4.25306 2.61337 4.25072C3.46203 4.16893 4.31538 4.10818 5.16169 3.99601C5.74309 3.9189 6.32215 3.79739 6.8848 3.63615C7.89287 3.35107 8.83062 2.88372 9.75898 2.40936C9.9817 2.29486 10.2044 2.17568 10.4412 2.05183C10.4646 2.32056 10.4904 2.57059 10.5068 2.82296C10.5397 3.29966 10.5772 3.77869 10.5912 4.25539C10.6006 4.56151 10.6123 4.87463 10.5561 5.17374C10.4529 5.7182 10.0895 6.11077 9.68162 6.46129C9.15414 6.91695 8.5446 7.25345 7.96086 7.62733C7.64906 7.82595 7.34429 8.03859 7.06297 8.27461C6.83557 8.46622 6.77696 8.7256 6.83557 8.94993C6.85901 8.88216 6.88011 8.79336 6.91996 8.71625C7.04187 8.47557 7.24114 8.30265 7.45917 8.16011C7.99602 7.80726 8.54695 7.4731 9.08381 7.12259C9.57378 6.80245 10.0427 6.45194 10.406 5.98225C10.6686 5.64109 10.8397 5.26487 10.8374 4.82556C10.835 4.59656 10.8444 4.36522 10.8304 4.13622C10.7788 3.36042 10.7225 2.58461 10.6616 1.80881C10.6428 1.58682 10.6006 1.36483 10.5701 1.14518C7.87881 1.14518 5.1992 1.14518 2.51022 1.14518C2.46333 1.51205 2.40004 1.87424 2.37425 2.23644C2.32502 3.00056 2.29688 3.76701 2.25 4.53347C2.21718 5.07326 2.34377 5.55696 2.68136 5.98459C2.93221 6.30239 3.22291 6.58046 3.55581 6.80713C4.09032 7.16932 4.64359 7.50581 5.18279 7.86334C5.45474 8.0456 5.72903 8.23021 5.96581 8.4522C6.362 8.82374 6.35497 9.25838 5.98456 9.65563C5.89548 9.75143 5.79701 9.8449 5.68683 9.91734C5.21561 10.2281 4.73736 10.5272 4.26146 10.8333C3.75273 11.1605 3.25338 11.5017 2.84546 11.955C2.45396 12.3896 2.21718 12.885 2.25234 13.4879C2.2922 14.1679 2.30861 14.8479 2.35315 15.5279C2.38128 15.9695 2.44223 16.4088 2.48678 16.8505C5.20155 16.8505 7.89756 16.8505 10.61 16.8505C10.6639 16.3528 10.7319 15.8644 10.7624 15.3737C10.8046 14.71 10.8186 14.044 10.8421 13.3804C10.8444 13.2846 10.8397 13.1841 10.8257 13.0907C10.76 12.6467 10.5397 12.2821 10.2443 11.955C9.81759 11.4853 9.29714 11.1348 8.76732 10.796C8.33127 10.5179 7.88584 10.2492 7.45917 9.95707C7.16378 9.75611 6.89417 9.52009 6.83322 9.13219C6.82853 9.29343 6.83088 9.45233 6.82619 9.61123C6.80743 10.394 6.78399 11.1745 6.84494 11.9573C6.8848 12.4808 7.06297 12.9154 7.51074 13.2145C7.61858 13.2869 7.71704 13.3711 7.82957 13.4318C8.38519 13.7286 8.94549 14.0183 9.50345 14.3128C9.81759 14.4787 10.1341 14.6376 10.3943 14.8876C10.5162 15.0068 10.5772 15.147 10.5795 15.3246C10.5842 15.7709 10.4904 16.2009 10.3591 16.6332Z" fill="#6BD188"/>
</g>
<defs>
<clipPath id="clip0_45_16629">
<rect width="13.0909" height="18" fill="white"/>
</clipPath>
</defs>
</svg>
