<svg width="18" height="18" viewBox="0 0 18 18" fill="none" xmlns="http://www.w3.org/2000/svg">
<g clip-path="url(#clip0_45_16650)">
<path d="M5.99531 18C5.99531 16.0042 5.99531 14.0224 5.99531 12.0172C3.99531 12.0172 2.00469 12.0172 0 12.0172C0 8.00209 0 4.00574 0 0C3.99061 0 7.97653 0 11.9906 0C11.9906 1.98643 11.9906 3.97756 11.9906 5.99217C14.0047 5.99217 15.9953 5.99217 18 5.99217C18 10.0073 18 13.9943 18 18C14.0094 18 10.0141 18 5.99531 18ZM10.5023 1.50744C7.48357 1.50744 4.49296 1.50744 1.50704 1.50744C1.50704 4.51761 1.50704 7.509 1.50704 10.5098C2.96714 10.5098 4.40376 10.4957 5.84507 10.5192C6.26291 10.5239 6.61033 10.4769 6.84038 10.0918C6.86854 10.0449 6.91549 10.0167 6.93427 10.0026C7.29577 10.3595 7.64789 10.7117 8.01878 11.078C7.94836 11.1391 7.87324 11.2142 7.79343 11.2846C7.59155 11.449 7.49296 11.6321 7.49765 11.9186C7.51643 13.365 7.50704 14.8161 7.50704 16.2625C7.50704 16.347 7.50704 16.4268 7.50704 16.5067C10.5305 16.5067 13.5211 16.5067 16.5117 16.5067C16.5117 13.5012 16.5117 10.5145 16.5117 7.5137C16.4554 7.509 16.4131 7.50431 16.3662 7.50431C14.8169 7.50431 13.2676 7.5043 11.7183 7.509C11.6291 7.509 11.5305 7.56066 11.4601 7.62171C11.3146 7.7485 11.1878 7.89408 11.0704 8.01148C10.7089 7.64988 10.3615 7.30237 9.99531 6.93608C10.0845 6.85155 10.1831 6.75294 10.2864 6.66841C10.4507 6.53222 10.5211 6.37255 10.5164 6.14714C10.4977 5.45213 10.5117 4.75241 10.5117 4.0574C10.5023 3.21211 10.5023 2.36681 10.5023 1.50744Z" fill="#9869F6"/>
<path d="M3.2168 4.32991C3.59708 3.94953 3.94919 3.60202 4.31069 3.24512C4.89755 3.83212 5.51257 4.44731 6.14637 5.08128C6.58299 4.62576 7.00083 4.18903 7.41867 3.75229C7.43745 3.76638 7.46093 3.78047 7.47971 3.79925C7.47971 5.02492 7.47971 6.25529 7.47971 7.49036C6.24966 7.49036 5.02431 7.49036 3.79426 7.49036C4.23088 7.06301 4.66281 6.64037 5.10412 6.20833C4.43745 5.54619 3.81774 4.931 3.2168 4.32991Z" fill="#9869F6"/>
<path d="M12.8924 11.7966C13.5684 12.4681 14.1788 13.0833 14.775 13.6797C14.4041 14.0507 14.052 14.4076 13.6905 14.7645C13.0943 14.1681 12.4839 13.5529 11.8783 12.9471C11.4323 13.3979 11.0051 13.8253 10.5778 14.2526C10.559 14.2385 10.5403 14.2244 10.5215 14.215C10.5215 12.9894 10.5215 11.7637 10.5215 10.5239C11.7468 10.5239 12.9722 10.5239 14.2069 10.5239C13.7656 10.9419 13.3337 11.3645 12.8924 11.7966Z" fill="#9869F6"/>
<path d="M10.2492 8.79576C9.76093 9.28415 9.27736 9.76784 8.81727 10.2281C8.46985 9.88055 8.11774 9.52365 7.76562 9.17614C8.22102 8.72062 8.71398 8.22753 9.19755 7.74854C9.54497 8.09135 9.89708 8.44355 10.2492 8.79576Z" fill="#9869F6"/>
</g>
<defs>
<clipPath id="clip0_45_16650">
<rect width="18" height="18" fill="white"/>
</clipPath>
</defs>
</svg>
