<svg width="18" height="18" viewBox="0 0 18 18" fill="none" xmlns="http://www.w3.org/2000/svg">
<g clip-path="url(#clip0_45_16638)">
<path d="M0 0C4.66709 0 9.336 0 14.0031 0C14.0031 0.0404205 14.0049 0.0790038 14.0049 0.119424C14.0049 2.41972 14.0049 4.71818 14.0049 7.01848C14.0049 7.05338 14.0049 7.08829 14.0049 7.1232C14.0159 7.12871 14.025 7.13422 14.036 7.13974C14.1658 7.00378 14.2901 6.86047 14.4272 6.73002C14.7928 6.38644 15.3979 6.37175 15.758 6.719C16.2571 7.20037 16.7415 7.69644 17.226 8.19251C17.3942 8.36521 17.4691 8.58569 17.4764 8.82638C17.4856 9.13872 17.3667 9.39594 17.151 9.61641C16.131 10.6563 15.1109 11.6981 14.0908 12.7361C14.0305 12.7968 14.0049 12.8574 14.0049 12.9438C14.0086 14.5918 14.0067 16.238 14.0067 17.8861C14.0067 17.9247 14.0067 17.9633 14.0067 18.0018C9.33234 18.0018 4.66891 18.0018 0 18.0018C0 17.9541 0 17.9118 0 17.8696C0 11.9479 0 6.02817 0 0.110238C0 0.0734919 0 0.0367459 0 0ZM1.52279 16.4714C5.18078 16.4714 8.83145 16.4714 12.4821 16.4714C12.4821 15.7677 12.4821 15.0713 12.4821 14.3603C12.4492 14.3915 12.4255 14.4118 12.4017 14.4356C12.1275 14.7112 11.8533 14.9832 11.5809 15.2606C11.4365 15.4076 11.2683 15.5086 11.0708 15.5674C10.4475 15.7511 9.8241 15.9404 9.20255 16.126C9.02705 16.1792 8.84973 16.1958 8.67058 16.1554C8.0728 16.0212 7.73277 15.4425 7.90644 14.8509C8.08925 14.2244 8.27937 13.5997 8.46035 12.9713C8.52067 12.76 8.6267 12.5818 8.78209 12.4275C9.54257 11.6668 10.2994 10.9025 11.0562 10.14C11.08 10.1162 11.1038 10.0904 11.1458 10.0463C8.40733 10.0463 5.69629 10.0463 2.98342 10.0463C2.98342 9.69358 2.98342 9.35184 2.98342 9.00459C5.70726 9.00459 8.42562 9.00459 11.1549 9.00459C11.1549 9.34633 11.1549 9.68256 11.1549 10.0353C11.1878 10.0041 11.208 9.98571 11.2281 9.96734C11.6266 9.56681 12.0251 9.16628 12.4236 8.76574C12.4675 8.72165 12.4858 8.67755 12.4858 8.61325C12.4839 6.28539 12.484 3.95938 12.484 1.63152C12.484 1.59661 12.484 1.5617 12.484 1.52679C8.82048 1.52679 5.17346 1.52679 1.52096 1.52679C1.52279 6.51322 1.52279 11.4886 1.52279 16.4714ZM8.83328 15.1816C8.86984 15.1742 8.88812 15.1724 8.9064 15.1669C9.50053 14.9905 10.0947 14.8141 10.6869 14.6322C10.7454 14.6139 10.8039 14.579 10.846 14.5367C12.2591 13.1201 13.6704 11.7017 15.0816 10.2852C15.1072 10.2595 15.142 10.2466 15.1566 10.2374C14.6795 9.75972 14.2261 9.30407 13.7709 8.84475C13.7654 8.85026 13.7526 8.86128 13.7398 8.87415C12.3121 10.3091 10.8844 11.7458 9.45665 13.1826C9.4274 13.212 9.40547 13.2506 9.3945 13.291C9.28298 13.6621 9.1733 14.0333 9.06361 14.4062C8.98866 14.6598 8.91188 14.9133 8.83328 15.1816ZM16.3979 8.88884C15.9518 8.44054 15.5003 7.98857 15.0615 7.54578C14.7983 7.80851 14.5277 8.07676 14.2627 8.34133C14.7087 8.78963 15.1584 9.2416 15.6027 9.68807C15.8677 9.42166 16.1365 9.15158 16.3979 8.88884Z" fill="#FF9263"/>
<path d="M2.98438 4.4243C2.98438 4.07522 2.98438 3.73348 2.98438 3.38623C5.70638 3.38623 8.42291 3.38623 11.1486 3.38623C11.1486 3.72981 11.1486 4.07338 11.1486 4.4243C8.42839 4.4243 5.71187 4.4243 2.98438 4.4243Z" fill="#FF9263"/>
<path d="M2.98633 6.15674C5.70834 6.15674 8.42486 6.15674 11.1469 6.15674C11.1469 6.50399 11.1469 6.84756 11.1469 7.19665C8.42852 7.19665 5.71199 7.19665 2.98633 7.19665C2.98633 6.85307 2.98633 6.5095 2.98633 6.15674Z" fill="#FF9263"/>
</g>
<defs>
<clipPath id="clip0_45_16638">
<rect width="17.4783" height="18" fill="white"/>
</clipPath>
</defs>
</svg>
