<svg width="3" height="11" viewBox="0 0 3 11" fill="none" xmlns="http://www.w3.org/2000/svg">
<path d="M2.43732 0.54541L2.34499 7.34086H1.27397L1.18164 0.54541H2.43732ZM1.80948 10.0738C1.58174 10.0738 1.3863 9.99226 1.22319 9.82915C1.06007 9.66603 0.978516 9.4706 0.978516 9.24285C0.978516 9.01511 1.06007 8.81968 1.22319 8.65656C1.3863 8.49345 1.58174 8.41189 1.80948 8.41189C2.03723 8.41189 2.23266 8.49345 2.39577 8.65656C2.55889 8.81968 2.64045 9.01511 2.64045 9.24285C2.64045 9.39366 2.60198 9.53215 2.52504 9.65834C2.45117 9.78452 2.35115 9.88608 2.22496 9.96302C2.10186 10.0369 1.96336 10.0738 1.80948 10.0738Z" fill="black"/>
</svg>
