<svg width="21" height="20" viewBox="0 0 21 20" fill="none" xmlns="http://www.w3.org/2000/svg">
<path d="M17.2004 12.8167C16.1754 12.8167 15.1837 12.65 14.2587 12.35C14.1138 12.3009 13.958 12.2936 13.8091 12.329C13.6603 12.3643 13.5244 12.4409 13.4171 12.55L12.1087 14.1917C9.75039 13.0667 7.54206 10.9417 6.36706 8.5L7.99206 7.11667C8.21706 6.88333 8.28372 6.55833 8.19206 6.26667C7.88372 5.34167 7.72539 4.35 7.72539 3.325C7.72539 2.875 7.35039 2.5 6.90039 2.5H4.01706C3.56706 2.5 3.02539 2.7 3.02539 3.325C3.02539 11.0667 9.46706 17.5 17.2004 17.5C17.7921 17.5 18.0254 16.975 18.0254 16.5167V13.6417C18.0254 13.1917 17.6504 12.8167 17.2004 12.8167Z" fill="white"/>
</svg>
