<svg width="18" height="18" viewBox="0 0 18 18" fill="none" xmlns="http://www.w3.org/2000/svg">
<path d="M11.7883 9.57041L9.9 8.48056V4.5C9.9 4.2613 9.80518 4.03239 9.6364 3.8636C9.46762 3.69482 9.2387 3.6 9 3.6C8.76131 3.6 8.53239 3.69482 8.36361 3.8636C8.19482 4.03239 8.1 4.2613 8.1 4.5V9C8.09996 9.15801 8.14153 9.31325 8.22052 9.4501C8.29951 9.58695 8.41315 9.70059 8.55 9.77959L10.8883 11.1296C10.9907 11.1888 11.1037 11.2272 11.221 11.2426C11.3382 11.2581 11.4573 11.2503 11.5716 11.2197C11.6858 11.1892 11.7929 11.1364 11.8867 11.0644C11.9805 10.9924 12.0592 10.9026 12.1183 10.8002C12.1774 10.6978 12.2158 10.5848 12.2312 10.4675C12.2466 10.3503 12.2388 10.2312 12.2081 10.117C12.1775 10.0027 12.1246 9.89569 12.0526 9.80192C11.9806 9.70814 11.8908 9.62947 11.7883 9.57041ZM9 0C7.21997 0 5.47991 0.527841 3.99987 1.51677C2.51983 2.50571 1.36628 3.91131 0.685088 5.55585C0.00389956 7.20038 -0.17433 9.00998 0.172936 10.7558C0.520203 12.5016 1.37737 14.1053 2.63604 15.364C3.89471 16.6226 5.49836 17.4798 7.24419 17.8271C8.99002 18.1743 10.7996 17.9961 12.4442 17.3149C14.0887 16.6337 15.4943 15.4802 16.4832 14.0001C17.4722 12.5201 18 10.78 18 9C17.9973 6.61386 17.0483 4.32622 15.361 2.63897C13.6738 0.951717 11.3861 0.00265372 9 0ZM9 16.2C7.57598 16.2 6.18393 15.7777 4.9999 14.9866C3.81586 14.1954 2.89302 13.0709 2.34807 11.7553C1.80312 10.4397 1.66054 8.99201 1.93835 7.59535C2.21616 6.19868 2.9019 4.91577 3.90883 3.90883C4.91577 2.90189 6.19869 2.21616 7.59535 1.93835C8.99201 1.66053 10.4397 1.80312 11.7553 2.34807C13.0709 2.89302 14.1954 3.81586 14.9866 4.99989C15.7777 6.18393 16.2 7.57597 16.2 9C16.1978 10.9089 15.4385 12.739 14.0888 14.0888C12.739 15.4385 10.9089 16.1978 9 16.2Z" fill="#29343E"/>
</svg>
