<svg width="18" height="18" viewBox="0 0 18 18" fill="none" xmlns="http://www.w3.org/2000/svg">
<mask id="mask0_410_8243" style="mask-type:alpha" maskUnits="userSpaceOnUse" x="0" y="0" width="18" height="18">
<rect width="18" height="18" fill="#D9D9D9"/>
</mask>
<g mask="url(#mask0_410_8243)">
<path d="M11.6353 9.20706C12.1375 8.77236 12.5403 8.23471 12.8164 7.63061C13.0924 7.0265 13.2353 6.37008 13.2353 5.70588C13.2353 4.4578 12.7395 3.26085 11.857 2.37832C10.9744 1.4958 9.77749 1 8.52941 1C7.28133 1 6.08437 1.4958 5.20185 2.37832C4.31933 3.26085 3.82353 4.4578 3.82353 5.70588C3.82352 6.37008 3.9664 7.0265 4.24247 7.63061C4.51854 8.23471 4.92134 8.77236 5.42353 9.20706C4.10601 9.80366 2.9882 10.7671 2.20375 11.9822C1.41929 13.1972 1.00139 14.6125 1 16.0588C1 16.3084 1.09916 16.5478 1.27566 16.7243C1.45217 16.9008 1.69156 17 1.94118 17C2.19079 17 2.43018 16.9008 2.60669 16.7243C2.78319 16.5478 2.88235 16.3084 2.88235 16.0588C2.88235 14.5611 3.47731 13.1248 4.53634 12.0658C5.59537 11.0067 7.03172 10.4118 8.52941 10.4118C10.0271 10.4118 11.4635 11.0067 12.5225 12.0658C13.5815 13.1248 14.1765 14.5611 14.1765 16.0588C14.1765 16.3084 14.2756 16.5478 14.4521 16.7243C14.6286 16.9008 14.868 17 15.1176 17C15.3673 17 15.6067 16.9008 15.7832 16.7243C15.9597 16.5478 16.0588 16.3084 16.0588 16.0588C16.0574 14.6125 15.6395 13.1972 14.8551 11.9822C14.0706 10.7671 12.9528 9.80366 11.6353 9.20706ZM8.52941 8.52941C7.97097 8.52941 7.42507 8.36381 6.96074 8.05356C6.49642 7.74331 6.13452 7.30233 5.92081 6.7864C5.7071 6.27047 5.65119 5.70275 5.76014 5.15504C5.86908 4.60733 6.138 4.10422 6.53288 3.70935C6.92775 3.31447 7.43086 3.04555 7.97857 2.93661C8.52628 2.82766 9.094 2.88358 9.60993 3.09728C10.1259 3.31099 10.5668 3.67289 10.8771 4.13721C11.1873 4.60154 11.3529 5.14744 11.3529 5.70588C11.3529 6.45473 11.0555 7.1729 10.5259 7.70242C9.99643 8.23193 9.27826 8.52941 8.52941 8.52941Z" fill="#29343E"/>
</g>
</svg>
