<svg width="138" height="38" viewBox="0 0 138 38" fill="none" xmlns="http://www.w3.org/2000/svg">
<path d="M13.8943 8.66676L18.1557 4.40538C18.6196 3.94172 19.3713 3.94172 19.8351 4.40538L24.0933 8.66374C24.5571 9.1274 24.5571 9.87935 24.0933 10.3431L19.832 14.6044C19.3682 15.0683 18.6164 15.0683 18.1526 14.6044L13.8944 10.3463C13.4306 9.88243 13.4305 9.13058 13.8943 8.66676Z" fill="white" fill-opacity="0.1"/>
<path d="M23.3944 18.1669L27.6558 13.9055C28.1196 13.4417 28.8714 13.4418 29.3352 13.9055L33.5935 18.1638C34.0572 18.6275 34.0572 19.3795 33.5935 19.8432L29.3319 24.1044C28.8683 24.5684 28.1164 24.5683 27.6527 24.1044L23.3944 19.8463C22.9305 19.3823 22.9306 18.6307 23.3944 18.1669Z" fill="white" fill-opacity="0.1"/>
<path d="M4.3944 18.1537L8.65578 13.8923C9.11955 13.4285 9.87145 13.4286 10.3352 13.8923L14.5935 18.1506C15.0572 18.6143 15.0571 19.3661 14.5935 19.83L10.3319 24.0912C9.86827 24.5552 9.11637 24.5551 8.65266 24.0912L4.39435 19.8331C3.93064 19.3692 3.93064 18.6175 4.3944 18.1537Z" fill="white" fill-opacity="0.1"/>
<path d="M13.8943 27.6536L18.1557 23.3922C18.6195 22.9286 19.3713 22.9285 19.835 23.3922L24.0934 27.6505C24.5571 28.1142 24.5571 28.8661 24.0934 29.3299L19.832 33.5913C19.3682 34.0551 18.6164 34.0552 18.1526 33.5912L13.8943 29.3331C13.4306 28.8692 13.4306 28.1175 13.8943 27.6536Z" fill="white" fill-opacity="0.1"/>
<path fill-rule="evenodd" clip-rule="evenodd" d="M13.0544 11.186C13.0544 11.186 12.3588 10.4903 12.3588 9.50659C12.3588 9.50659 12.3588 8.52283 13.0544 7.82721L17.3158 3.56579C17.3158 3.56579 18.0114 2.87017 18.9952 2.87017C18.9952 2.87017 19.9789 2.87017 20.6746 3.56579L24.9328 7.82406C24.9328 7.82406 25.6285 8.51968 25.6285 9.50344C25.6285 9.50344 25.6285 10.4872 24.9328 11.1828L20.6714 15.4442C20.6714 15.4442 19.9758 16.1399 18.992 16.1399C18.992 16.1399 18.0083 16.1399 17.3127 15.4442L13.0544 11.186ZM14.7338 9.50659L18.992 13.7649L23.2535 9.50344L18.9952 5.24517L14.7338 9.50659Z" fill="#1C1C1C"/>
<path fill-rule="evenodd" clip-rule="evenodd" d="M22.5563 20.686C22.5563 20.686 21.8607 19.9903 21.8607 19.0066C21.8607 19.0066 21.8607 18.0228 22.5563 17.3272L26.8178 13.0658C26.8178 13.0658 27.5134 12.3702 28.4971 12.3702C28.4971 12.3702 29.4809 12.3702 30.1765 13.0658L34.4348 17.3241C34.4348 17.3241 35.1304 18.0197 35.1304 19.0034C35.1304 19.0034 35.1304 19.9872 34.4348 20.6828L30.1734 24.9442C30.1734 24.9442 29.4777 25.6399 28.494 25.6399C28.494 25.6399 27.5102 25.6399 26.8146 24.9442L22.5563 20.686ZM24.2357 19.0066L28.494 23.2649L32.7554 19.0034L28.4971 14.7452L24.2357 19.0066Z" fill="#1C1C1C"/>
<path fill-rule="evenodd" clip-rule="evenodd" d="M3.55438 20.6728C3.55438 20.6728 2.85876 19.9772 2.85876 18.9934C2.85876 18.9934 2.85876 18.0097 3.55438 17.314L7.8158 13.0526C7.8158 13.0526 8.51142 12.357 9.49518 12.357C9.49518 12.357 10.4789 12.357 11.1746 13.0526L15.4328 17.3109C15.4328 17.3109 16.1285 18.0065 16.1285 18.9903C16.1285 18.9903 16.1285 19.974 15.4328 20.6696L11.1714 24.9311C11.1714 24.9311 10.4758 25.6267 9.49203 25.6267C9.49203 25.6267 8.50827 25.6267 7.81265 24.9311L3.55438 20.6728ZM5.23376 18.9934L9.49203 23.2517L13.7535 18.9903L9.49518 14.732L5.23376 18.9934Z" fill="#1C1C1C"/>
<path fill-rule="evenodd" clip-rule="evenodd" d="M13.0563 30.1728C13.0563 30.1728 12.3607 29.4772 12.3607 28.4934C12.3607 28.4934 12.3607 27.5097 13.0563 26.814L17.3178 22.5526C17.3178 22.5526 18.0134 21.857 18.9971 21.857C18.9971 21.857 19.9809 21.857 20.6765 22.5526L24.9348 26.8109C24.9348 26.8109 25.6304 27.5065 25.6304 28.4903C25.6304 28.4903 25.6304 29.474 24.9348 30.1696L20.6734 34.4311C20.6734 34.4311 19.9777 35.1267 18.994 35.1267C18.994 35.1267 18.0102 35.1267 17.3146 34.4311L13.0563 30.1728ZM14.7357 28.4934L18.994 32.7517L23.2554 28.4903L18.9971 24.232L14.7357 28.4934Z" fill="#1C1C1C"/>
<path d="M48.6712 10.5454V28H45.5859V10.5454H48.6712Z" fill="#1C1C1C"/>
<path d="M57.554 28.2556C56.2756 28.2556 55.1676 27.9744 54.2301 27.4119C53.2926 26.8494 52.5653 26.0625 52.0483 25.0511C51.5369 24.0397 51.2812 22.8579 51.2812 21.5056C51.2812 20.1534 51.5369 18.9687 52.0483 17.9517C52.5653 16.9346 53.2926 16.1448 54.2301 15.5823C55.1676 15.0198 56.2756 14.7386 57.554 14.7386C58.8324 14.7386 59.9403 15.0198 60.8778 15.5823C61.8153 16.1448 62.5398 16.9346 63.0511 17.9517C63.5682 18.9687 63.8267 20.1534 63.8267 21.5056C63.8267 22.8579 63.5682 24.0397 63.0511 25.0511C62.5398 26.0625 61.8153 26.8494 60.8778 27.4119C59.9403 27.9744 58.8324 28.2556 57.554 28.2556ZM57.571 25.784C58.2642 25.784 58.8438 25.5937 59.3097 25.213C59.7756 24.8267 60.1222 24.3096 60.3494 23.6619C60.5824 23.0142 60.6989 22.2926 60.6989 21.4971C60.6989 20.696 60.5824 19.9715 60.3494 19.3238C60.1222 18.6704 59.7756 18.1505 59.3097 17.7642C58.8438 17.3778 58.2642 17.1846 57.571 17.1846C56.8608 17.1846 56.2699 17.3778 55.7983 17.7642C55.3324 18.1505 54.983 18.6704 54.75 19.3238C54.5227 19.9715 54.4091 20.696 54.4091 21.4971C54.4091 22.2926 54.5227 23.0142 54.75 23.6619C54.983 24.3096 55.3324 24.8267 55.7983 25.213C56.2699 25.5937 56.8608 25.784 57.571 25.784Z" fill="#1C1C1C"/>
<path d="M72.1385 33.1818C71.0305 33.1818 70.0788 33.0312 69.2834 32.7301C68.4879 32.4346 67.8487 32.0369 67.3658 31.5369C66.8828 31.0369 66.5476 30.4829 66.3601 29.875L69.1385 29.2017C69.2635 29.4573 69.4453 29.7102 69.6839 29.9602C69.9226 30.2159 70.2436 30.4261 70.647 30.5909C71.0561 30.7613 71.5703 30.8465 72.1896 30.8465C73.0646 30.8465 73.7891 30.6335 74.3629 30.2073C74.9368 29.7869 75.2237 29.0937 75.2237 28.1278V25.6477H75.0703C74.9112 25.9659 74.6783 26.2926 74.3714 26.6278C74.0703 26.963 73.6697 27.2443 73.1697 27.4715C72.6754 27.6988 72.0533 27.8125 71.3033 27.8125C70.2976 27.8125 69.3857 27.5767 68.5675 27.1051C67.755 26.6278 67.1072 25.9176 66.6243 24.9744C66.147 24.0255 65.9084 22.838 65.9084 21.4119C65.9084 19.9744 66.147 18.7613 66.6243 17.7727C67.1072 16.7784 67.7578 16.0255 68.576 15.5142C69.3942 14.9971 70.3061 14.7386 71.3118 14.7386C72.0788 14.7386 72.7095 14.8693 73.2038 15.1306C73.7038 15.3863 74.1016 15.696 74.397 16.0596C74.6925 16.4176 74.9169 16.7556 75.0703 17.0738H75.2408V14.909H78.2834V28.213C78.2834 29.3323 78.0163 30.2585 77.4822 30.9914C76.9482 31.7244 76.218 32.2727 75.2919 32.6363C74.3658 33 73.3146 33.1818 72.1385 33.1818ZM72.1641 25.392C72.8175 25.392 73.3743 25.2329 73.8345 24.9147C74.2947 24.5965 74.6442 24.1392 74.8828 23.5426C75.1214 22.946 75.2408 22.2301 75.2408 21.3948C75.2408 20.571 75.1214 19.8494 74.8828 19.2301C74.6499 18.6108 74.3033 18.1306 73.843 17.7897C73.3885 17.4431 72.8288 17.2698 72.1641 17.2698C71.4766 17.2698 70.9027 17.4488 70.4425 17.8068C69.9822 18.1647 69.6357 18.6562 69.4027 19.2812C69.1697 19.9005 69.0533 20.6051 69.0533 21.3948C69.0533 22.196 69.1697 22.8977 69.4027 23.5C69.6413 24.0965 69.9908 24.5625 70.451 24.8977C70.9169 25.2272 71.4879 25.392 72.1641 25.392Z" fill="#1C1C1C"/>
<path d="M87.1555 28.2556C85.8771 28.2556 84.7692 27.9744 83.8317 27.4119C82.8942 26.8494 82.1669 26.0625 81.6499 25.0511C81.1385 24.0397 80.8828 22.8579 80.8828 21.5056C80.8828 20.1534 81.1385 18.9687 81.6499 17.9517C82.1669 16.9346 82.8942 16.1448 83.8317 15.5823C84.7692 15.0198 85.8771 14.7386 87.1555 14.7386C88.4339 14.7386 89.5419 15.0198 90.4794 15.5823C91.4169 16.1448 92.1413 16.9346 92.6527 17.9517C93.1697 18.9687 93.4283 20.1534 93.4283 21.5056C93.4283 22.8579 93.1697 24.0397 92.6527 25.0511C92.1413 26.0625 91.4169 26.8494 90.4794 27.4119C89.5419 27.9744 88.4339 28.2556 87.1555 28.2556ZM87.1726 25.784C87.8658 25.784 88.4453 25.5937 88.9112 25.213C89.3771 24.8267 89.7237 24.3096 89.951 23.6619C90.184 23.0142 90.3004 22.2926 90.3004 21.4971C90.3004 20.696 90.184 19.9715 89.951 19.3238C89.7237 18.6704 89.3771 18.1505 88.9112 17.7642C88.4453 17.3778 87.8658 17.1846 87.1726 17.1846C86.4624 17.1846 85.8714 17.3778 85.3999 17.7642C84.9339 18.1505 84.5845 18.6704 84.3516 19.3238C84.1243 19.9715 84.0107 20.696 84.0107 21.4971C84.0107 22.2926 84.1243 23.0142 84.3516 23.6619C84.5845 24.3096 84.9339 24.8267 85.3999 25.213C85.8714 25.5937 86.4624 25.784 87.1726 25.784Z" fill="#1C1C1C"/>
<path d="M99.8139 28.2642C98.9844 28.2642 98.2372 28.1164 97.5724 27.821C96.9134 27.5198 96.3906 27.0767 96.0043 26.4914C95.6236 25.9062 95.4332 25.1846 95.4332 24.3267C95.4332 23.588 95.5696 22.9772 95.8423 22.4943C96.1151 22.0113 96.4872 21.625 96.9588 21.3352C97.4304 21.0454 97.9616 20.8267 98.5526 20.6789C99.1491 20.5255 99.7656 20.4147 100.402 20.3465C101.169 20.267 101.791 20.196 102.268 20.1335C102.746 20.0653 103.092 19.963 103.308 19.8267C103.53 19.6846 103.641 19.4659 103.641 19.1704V19.1193C103.641 18.4772 103.45 17.9801 103.07 17.6278C102.689 17.2755 102.141 17.0994 101.425 17.0994C100.669 17.0994 100.07 17.2642 99.6264 17.5937C99.1889 17.9233 98.8935 18.3125 98.7401 18.7613L95.8594 18.3522C96.0866 17.5568 96.4616 16.892 96.9844 16.3579C97.5071 15.8181 98.1463 15.4147 98.902 15.1477C99.6577 14.875 100.493 14.7386 101.408 14.7386C102.038 14.7386 102.666 14.8125 103.291 14.9602C103.916 15.1079 104.487 15.3522 105.004 15.6931C105.521 16.0284 105.936 16.4858 106.249 17.0653C106.567 17.6448 106.726 18.3693 106.726 19.2386V28H103.76V26.2017H103.658C103.47 26.5653 103.206 26.9062 102.865 27.2244C102.53 27.5369 102.107 27.7897 101.595 27.9829C101.089 28.1704 100.496 28.2642 99.8139 28.2642ZM100.615 25.9971C101.234 25.9971 101.771 25.875 102.226 25.6306C102.68 25.3806 103.03 25.0511 103.274 24.642C103.524 24.2329 103.649 23.7869 103.649 23.3039V21.7613C103.553 21.8409 103.388 21.9147 103.155 21.9829C102.928 22.0511 102.672 22.1108 102.388 22.1619C102.104 22.213 101.822 22.2585 101.544 22.2983C101.266 22.338 101.024 22.3721 100.82 22.4005C100.359 22.463 99.9474 22.5653 99.5838 22.7073C99.2202 22.8494 98.9332 23.0483 98.723 23.3039C98.5128 23.5539 98.4077 23.8778 98.4077 24.2755C98.4077 24.8437 98.6151 25.2727 99.0298 25.5625C99.4446 25.8522 99.973 25.9971 100.615 25.9971Z" fill="#1C1C1C"/>
<path d="M109.828 32.909V14.909H112.862V17.0738H113.041C113.2 16.7556 113.425 16.4176 113.714 16.0596C114.004 15.696 114.396 15.3863 114.891 15.1306C115.385 14.8693 116.016 14.7386 116.783 14.7386C117.794 14.7386 118.706 14.9971 119.518 15.5142C120.337 16.0255 120.984 16.784 121.462 17.7897C121.945 18.7897 122.186 20.017 122.186 21.4715C122.186 22.909 121.95 24.1306 121.479 25.1363C121.007 26.142 120.365 26.909 119.553 27.4375C118.74 27.9659 117.82 28.2301 116.791 28.2301C116.041 28.2301 115.419 28.1051 114.925 27.8551C114.43 27.6051 114.033 27.3039 113.732 26.9517C113.436 26.5937 113.206 26.2556 113.041 25.9375H112.913V32.909H109.828ZM112.854 21.4545C112.854 22.3011 112.973 23.0426 113.212 23.6789C113.456 24.3153 113.805 24.8125 114.26 25.1704C114.72 25.5227 115.277 25.6988 115.93 25.6988C116.612 25.6988 117.183 25.517 117.643 25.1534C118.104 24.784 118.45 24.2812 118.683 23.6448C118.922 23.0028 119.041 22.2727 119.041 21.4545C119.041 20.642 118.925 19.9204 118.692 19.2897C118.459 18.659 118.112 18.1647 117.652 17.8068C117.192 17.4488 116.618 17.2698 115.93 17.2698C115.271 17.2698 114.712 17.4431 114.251 17.7897C113.791 18.1363 113.442 18.6221 113.203 19.2471C112.97 19.8721 112.854 20.6079 112.854 21.4545Z" fill="#1C1C1C"/>
<path d="M124.828 32.909V14.909H127.862V17.0738H128.041C128.2 16.7556 128.425 16.4176 128.714 16.0596C129.004 15.696 129.396 15.3863 129.891 15.1306C130.385 14.8693 131.016 14.7386 131.783 14.7386C132.794 14.7386 133.706 14.9971 134.518 15.5142C135.337 16.0255 135.984 16.784 136.462 17.7897C136.945 18.7897 137.186 20.017 137.186 21.4715C137.186 22.909 136.95 24.1306 136.479 25.1363C136.007 26.142 135.365 26.909 134.553 27.4375C133.74 27.9659 132.82 28.2301 131.791 28.2301C131.041 28.2301 130.419 28.1051 129.925 27.8551C129.43 27.6051 129.033 27.3039 128.732 26.9517C128.436 26.5937 128.206 26.2556 128.041 25.9375H127.913V32.909H124.828ZM127.854 21.4545C127.854 22.3011 127.973 23.0426 128.212 23.6789C128.456 24.3153 128.805 24.8125 129.26 25.1704C129.72 25.5227 130.277 25.6988 130.93 25.6988C131.612 25.6988 132.183 25.517 132.643 25.1534C133.104 24.784 133.45 24.2812 133.683 23.6448C133.922 23.0028 134.041 22.2727 134.041 21.4545C134.041 20.642 133.925 19.9204 133.692 19.2897C133.459 18.659 133.112 18.1647 132.652 17.8068C132.192 17.4488 131.618 17.2698 130.93 17.2698C130.271 17.2698 129.712 17.4431 129.251 17.7897C128.791 18.1363 128.442 18.6221 128.203 19.2471C127.97 19.8721 127.854 20.6079 127.854 21.4545Z" fill="#1C1C1C"/>
</svg>
