<svg width="164" height="45" viewBox="0 0 164 45" fill="none" xmlns="http://www.w3.org/2000/svg">
<path d="M16.4533 10.2633L21.4997 5.2169C22.049 4.66783 22.9392 4.66783 23.4884 5.2169L28.5311 10.2597C29.0803 10.8088 29.0803 11.6992 28.5311 12.2484L23.4847 17.2947C22.9355 17.844 22.0452 17.8441 21.496 17.2947L16.4533 12.2522C15.9041 11.7029 15.904 10.8125 16.4533 10.2633Z" fill="white" fill-opacity="0.1"/>
<path d="M27.7053 21.5134L32.7517 16.467C33.3009 15.9178 34.1913 15.9179 34.7404 16.467L39.7832 21.5098C40.3323 22.0589 40.3323 22.9494 39.7832 23.4985L34.7366 28.5446C34.1875 29.0941 33.2971 29.0941 32.748 28.5447L27.7053 23.5022C27.156 22.9528 27.1561 22.0627 27.7053 21.5134Z" fill="white" fill-opacity="0.1"/>
<path d="M5.20338 21.4978L10.2498 16.4514C10.799 15.9022 11.6894 15.9023 12.2385 16.4514L17.2812 21.4941C17.8304 22.0433 17.8303 22.9336 17.2812 23.4829L12.2346 28.529C11.6856 29.0785 10.7952 29.0785 10.2461 28.5291L5.20332 23.4866C4.65419 22.9372 4.65419 22.047 5.20338 21.4978Z" fill="white" fill-opacity="0.1"/>
<path d="M16.4553 32.7476L21.5016 27.7013C22.0509 27.1522 22.9412 27.1522 23.4903 27.7013L28.533 32.744C29.0822 33.2932 29.0822 34.1836 28.5331 34.7327L23.4867 39.7792C22.9374 40.3284 22.0471 40.3285 21.498 39.7791L16.4553 34.7366C15.9061 34.1872 15.9061 33.297 16.4553 32.7476Z" fill="white" fill-opacity="0.1"/>
<path fill-rule="evenodd" clip-rule="evenodd" d="M15.4594 13.2466C15.4594 13.2466 14.6357 12.4228 14.6357 11.2578C14.6357 11.2578 14.6357 10.0928 15.4594 9.26907L20.5059 4.22265C20.5059 4.22265 21.3296 3.39889 22.4946 3.39889C22.4946 3.39889 23.6596 3.39889 24.4833 4.22265L29.526 9.26534C29.526 9.26534 30.3498 10.0891 30.3498 11.2541C30.3498 11.2541 30.3498 12.4191 29.526 13.2428L24.4796 18.2892C24.4796 18.2892 23.6558 19.113 22.4909 19.113C22.4909 19.113 21.3259 19.113 20.5021 18.2892L15.4594 13.2466ZM17.4482 11.2578L22.4909 16.3005L27.5373 11.2541L22.4946 6.21139L17.4482 11.2578Z" fill="white"/>
<path fill-rule="evenodd" clip-rule="evenodd" d="M26.7094 24.4966C26.7094 24.4966 25.8857 23.6728 25.8857 22.5078C25.8857 22.5078 25.8857 21.3428 26.7094 20.5191L31.7559 15.4727C31.7559 15.4727 32.5796 14.6489 33.7446 14.6489C33.7446 14.6489 34.9096 14.6489 35.7333 15.4727L40.776 20.5153C40.776 20.5153 41.5998 21.3391 41.5998 22.5041C41.5998 22.5041 41.5998 23.6691 40.776 24.4928L35.7296 29.5392C35.7296 29.5392 34.9058 30.363 33.7409 30.363C33.7409 30.363 32.5759 30.363 31.7521 29.5392L26.7094 24.4966ZM28.6982 22.5078L33.7409 27.5505L38.7873 22.5041L33.7446 17.4614L28.6982 22.5078Z" fill="white"/>
<path fill-rule="evenodd" clip-rule="evenodd" d="M4.20944 24.4809C4.20944 24.4809 3.38568 23.6572 3.38568 22.4922C3.38568 22.4922 3.38568 21.3272 4.20944 20.5034L9.25586 15.457C9.25586 15.457 10.0796 14.6333 11.2446 14.6333C11.2446 14.6333 12.4096 14.6333 13.2333 15.457L18.276 20.4997C18.276 20.4997 19.0998 21.3235 19.0998 22.4885C19.0998 22.4885 19.0998 23.6534 18.276 24.4772L13.2296 29.5236C13.2296 29.5236 12.4058 30.3474 11.2409 30.3474C11.2409 30.3474 10.0759 30.3474 9.25213 29.5236L4.20944 24.4809ZM6.19818 22.4922L11.2409 27.5349L16.2873 22.4885L11.2446 17.4458L6.19818 22.4922Z" fill="white"/>
<path fill-rule="evenodd" clip-rule="evenodd" d="M15.4594 35.7309C15.4594 35.7309 14.6357 34.9072 14.6357 33.7422C14.6357 33.7422 14.6357 32.5772 15.4594 31.7534L20.5059 26.707C20.5059 26.707 21.3296 25.8833 22.4946 25.8833C22.4946 25.8833 23.6596 25.8833 24.4833 26.707L29.526 31.7497C29.526 31.7497 30.3498 32.5735 30.3498 33.7385C30.3498 33.7385 30.3498 34.9034 29.526 35.7272L24.4796 40.7736C24.4796 40.7736 23.6558 41.5974 22.4909 41.5974C22.4909 41.5974 21.3259 41.5974 20.5021 40.7736L15.4594 35.7309ZM17.4482 33.7422L22.4909 38.7849L27.5373 33.7385L22.4946 28.6958L17.4482 33.7422Z" fill="white"/>
<path d="M57.705 13V33.0482H54V13H57.705Z" fill="white"/>
<path d="M68.3721 33.3419C66.8369 33.3419 65.5064 33.0188 64.3805 32.3727C63.2547 31.7267 62.3814 30.8228 61.7605 29.6611C61.1464 28.4995 60.8393 27.1421 60.8393 25.5889C60.8393 24.0356 61.1464 22.675 61.7605 21.5068C62.3814 20.3386 63.2547 19.4315 64.3805 18.7854C65.5064 18.1393 66.8369 17.8163 68.3721 17.8163C69.9073 17.8163 71.2378 18.1393 72.3636 18.7854C73.4894 19.4315 74.3594 20.3386 74.9735 21.5068C75.5944 22.675 75.9048 24.0356 75.9048 25.5889C75.9048 27.1421 75.5944 28.4995 74.9735 29.6611C74.3594 30.8228 73.4894 31.7267 72.3636 32.3727C71.2378 33.0188 69.9073 33.3419 68.3721 33.3419ZM68.3925 30.503C69.225 30.503 69.9209 30.2844 70.4804 29.8471C71.0399 29.4034 71.4561 28.8095 71.7291 28.0655C72.0088 27.3215 72.1487 26.4927 72.1487 25.5791C72.1487 24.6589 72.0088 23.8268 71.7291 23.0828C71.4561 22.3323 71.0399 21.7352 70.4804 21.2914C69.9209 20.8476 69.225 20.6258 68.3925 20.6258C67.5397 20.6258 66.8301 20.8476 66.2637 21.2914C65.7042 21.7352 65.2846 22.3323 65.0049 23.0828C64.7319 23.8268 64.5955 24.6589 64.5955 25.5791C64.5955 26.4927 64.7319 27.3215 65.0049 28.0655C65.2846 28.8095 65.7042 29.4034 66.2637 29.8471C66.8301 30.2844 67.5397 30.503 68.3925 30.503Z" fill="white"/>
<path d="M85.8862 39C84.5557 39 83.4128 38.8271 82.4576 38.4812C81.5023 38.1418 80.7347 37.685 80.1548 37.1107C79.5748 36.5364 79.1722 35.9001 78.9471 35.2018L82.2836 34.4285C82.4337 34.7221 82.652 35.0125 82.9386 35.2997C83.2252 35.5934 83.6107 35.8348 84.0951 36.0241C84.5864 36.2199 85.2039 36.3178 85.9476 36.3178C86.9984 36.3178 87.8683 36.073 88.5575 35.5836C89.2466 35.1007 89.5912 34.3045 89.5912 33.195V30.3464H89.4069C89.2159 30.7118 88.9361 31.0871 88.5677 31.4721C88.2061 31.8572 87.725 32.1802 87.1246 32.4413C86.531 32.7023 85.7839 32.8328 84.8832 32.8328C83.6755 32.8328 82.5804 32.562 81.5979 32.0203C80.6222 31.4721 79.8443 30.6564 79.2644 29.573C78.6912 28.4832 78.4046 27.1192 78.4046 25.4812C78.4046 23.8301 78.6912 22.4367 79.2644 21.3012C79.8443 20.1591 80.6256 19.2944 81.6081 18.7071C82.5906 18.1132 83.6857 17.8163 84.8934 17.8163C85.8146 17.8163 86.5719 17.9664 87.1655 18.2666C87.766 18.5602 88.2436 18.9159 88.5984 19.3336C88.9532 19.7447 89.2227 20.133 89.4069 20.4985H89.6116V18.012H93.2654V33.2929C93.2654 34.5786 92.9447 35.6423 92.3034 36.4842C91.662 37.3261 90.7852 37.9558 89.673 38.3735C88.5609 38.7912 87.2986 39 85.8862 39ZM85.9169 30.0527C86.7016 30.0527 87.3702 29.87 87.9229 29.5045C88.4756 29.1391 88.8952 28.6137 89.1818 27.9285C89.4684 27.2432 89.6116 26.4209 89.6116 25.4616C89.6116 24.5153 89.4684 23.6865 89.1818 22.9752C88.902 22.2638 88.4858 21.7123 87.9331 21.3208C87.3873 20.9227 86.7152 20.7236 85.9169 20.7236C85.0913 20.7236 84.4022 20.9292 83.8495 21.3404C83.2968 21.7515 82.8806 22.316 82.6009 23.0339C82.3211 23.7452 82.1812 24.5545 82.1812 25.4616C82.1812 26.3818 82.3211 27.1877 82.6009 27.8795C82.8874 28.5648 83.3071 29.0999 83.8597 29.4849C84.4192 29.8635 85.105 30.0527 85.9169 30.0527Z" fill="white"/>
<path d="M103.92 33.3419C102.385 33.3419 101.054 33.0188 99.9282 32.3727C98.8024 31.7267 97.929 30.8228 97.3081 29.6611C96.694 28.4995 96.387 27.1421 96.387 25.5889C96.387 24.0356 96.694 22.675 97.3081 21.5068C97.929 20.3386 98.8024 19.4315 99.9282 18.7854C101.054 18.1393 102.385 17.8163 103.92 17.8163C105.455 17.8163 106.785 18.1393 107.911 18.7854C109.037 19.4315 109.907 20.3386 110.521 21.5068C111.142 22.675 111.452 24.0356 111.452 25.5889C111.452 27.1421 111.142 28.4995 110.521 29.6611C109.907 30.8228 109.037 31.7267 107.911 32.3727C106.785 33.0188 105.455 33.3419 103.92 33.3419ZM103.94 30.503C104.773 30.503 105.469 30.2844 106.028 29.8471C106.588 29.4034 107.004 28.8095 107.277 28.0655C107.556 27.3215 107.696 26.4927 107.696 25.5791C107.696 24.6589 107.556 23.8268 107.277 23.0828C107.004 22.3323 106.588 21.7352 106.028 21.2914C105.469 20.8476 104.773 20.6258 103.94 20.6258C103.087 20.6258 102.378 20.8476 101.811 21.2914C101.252 21.7352 100.832 22.3323 100.553 23.0828C100.28 23.8268 100.143 24.6589 100.143 25.5791C100.143 26.4927 100.28 27.3215 100.553 28.0655C100.832 28.8095 101.252 29.4034 101.811 29.8471C102.378 30.2844 103.087 30.503 103.94 30.503Z" fill="white"/>
<path d="M119.121 33.3517C118.125 33.3517 117.227 33.182 116.429 32.8426C115.638 32.4967 115.01 31.9877 114.546 31.3155C114.089 30.6433 113.86 29.8145 113.86 28.8291C113.86 27.9807 114.024 27.2791 114.351 26.7244C114.679 26.1697 115.126 25.7259 115.692 25.3931C116.259 25.0602 116.896 24.809 117.606 24.6393C118.323 24.4631 119.063 24.3358 119.827 24.2575C120.748 24.1662 121.495 24.0846 122.068 24.0128C122.642 23.9345 123.058 23.817 123.317 23.6604C123.583 23.4972 123.716 23.246 123.716 22.9066V22.8479C123.716 22.1104 123.488 21.5394 123.03 21.1348C122.573 20.7302 121.915 20.5279 121.055 20.5279C120.148 20.5279 119.428 20.7171 118.896 21.0956C118.37 21.4741 118.015 21.9212 117.831 22.4367L114.372 21.9669C114.645 21.0532 115.095 20.2897 115.723 19.6762C116.351 19.0562 117.118 18.5929 118.026 18.2861C118.933 17.9729 119.936 17.8163 121.035 17.8163C121.792 17.8163 122.546 17.9011 123.297 18.0708C124.047 18.2405 124.733 18.5211 125.354 18.9126C125.975 19.2977 126.473 19.823 126.848 20.4887C127.23 21.1544 127.421 21.9864 127.421 22.9849V33.0482H123.86V30.9827H123.737C123.512 31.4004 123.194 31.7919 122.785 32.1574C122.382 32.5163 121.874 32.8067 121.26 33.0286C120.653 33.244 119.94 33.3517 119.121 33.3517ZM120.083 30.7477C120.827 30.7477 121.471 30.6074 122.017 30.3268C122.563 30.0397 122.983 29.6611 123.276 29.1913C123.576 28.7214 123.726 28.2091 123.726 27.6544V25.8825C123.61 25.9739 123.413 26.0587 123.133 26.137C122.86 26.2154 122.553 26.2839 122.212 26.3426C121.871 26.4014 121.533 26.4536 121.198 26.4992C120.864 26.5449 120.574 26.5841 120.329 26.6167C119.776 26.6885 119.281 26.806 118.844 26.9691C118.408 27.1323 118.063 27.3607 117.811 27.6544C117.558 27.9415 117.432 28.3135 117.432 28.7703C117.432 29.4229 117.681 29.9157 118.179 30.2485C118.677 30.5813 119.312 30.7477 120.083 30.7477Z" fill="white"/>
<path d="M131.147 38.6867V18.012H134.79V20.4985H135.005C135.196 20.133 135.466 19.7447 135.814 19.3336C136.162 18.9159 136.632 18.5602 137.226 18.2666C137.82 17.9664 138.577 17.8163 139.498 17.8163C140.713 17.8163 141.808 18.1132 142.783 18.7071C143.766 19.2944 144.544 20.1657 145.117 21.3208C145.697 22.4694 145.987 23.879 145.987 25.5497C145.987 27.2008 145.704 28.6039 145.137 29.759C144.571 30.9142 143.8 31.7952 142.824 32.4021C141.849 33.009 140.743 33.3125 139.508 33.3125C138.608 33.3125 137.861 33.1689 137.267 32.8818C136.673 32.5946 136.196 32.2487 135.834 31.8441C135.479 31.433 135.203 31.0447 135.005 30.6792H134.852V38.6867H131.147ZM134.78 25.5301C134.78 26.5025 134.923 27.3542 135.21 28.0851C135.503 28.816 135.923 29.387 136.469 29.7982C137.021 30.2028 137.69 30.4051 138.475 30.4051C139.293 30.4051 139.979 30.1963 140.532 29.7786C141.085 29.3544 141.501 28.7769 141.78 28.0459C142.067 27.3085 142.21 26.4699 142.21 25.5301C142.21 24.5969 142.07 23.7681 141.791 23.0437C141.511 22.3193 141.095 21.7515 140.542 21.3404C139.989 20.9292 139.3 20.7236 138.475 20.7236C137.683 20.7236 137.011 20.9227 136.458 21.3208C135.906 21.7189 135.486 22.2769 135.2 22.9947C134.92 23.7126 134.78 24.5577 134.78 25.5301Z" fill="white"/>
<path d="M149.16 38.6867V18.012H152.803V20.4985H153.018C153.209 20.133 153.479 19.7447 153.827 19.3336C154.175 18.9159 154.645 18.5602 155.239 18.2666C155.833 17.9664 156.59 17.8163 157.511 17.8163C158.726 17.8163 159.821 18.1132 160.797 18.7071C161.779 19.2944 162.557 20.1657 163.13 21.3208C163.71 22.4694 164 23.879 164 25.5497C164 27.2008 163.717 28.6039 163.151 29.759C162.584 30.9142 161.813 31.7952 160.837 32.4021C159.862 33.009 158.756 33.3125 157.521 33.3125C156.621 33.3125 155.874 33.1689 155.28 32.8818C154.686 32.5946 154.209 32.2487 153.847 31.8441C153.492 31.433 153.216 31.0447 153.018 30.6792H152.865V38.6867H149.16ZM152.793 25.5301C152.793 26.5025 152.936 27.3542 153.223 28.0851C153.516 28.816 153.936 29.387 154.482 29.7982C155.034 30.2028 155.703 30.4051 156.488 30.4051C157.307 30.4051 157.992 30.1963 158.545 29.7786C159.098 29.3544 159.514 28.7769 159.794 28.0459C160.08 27.3085 160.223 26.4699 160.223 25.5301C160.223 24.5969 160.084 23.7681 159.804 23.0437C159.524 22.3193 159.108 21.7515 158.555 21.3404C158.002 20.9292 157.313 20.7236 156.488 20.7236C155.696 20.7236 155.024 20.9227 154.471 21.3208C153.919 21.7189 153.499 22.2769 153.213 22.9947C152.933 23.7126 152.793 24.5577 152.793 25.5301Z" fill="white"/>
</svg>
