<svg width="181" height="99" viewBox="0 0 181 99" fill="none" xmlns="http://www.w3.org/2000/svg">
<path d="M173 91C173 80.4162 171.007 70.298 167.376 61C155.375 30.2698 125.48 8.5 90.5 8.5" stroke="url(#paint0_linear_511_8242)" stroke-width="16" stroke-linecap="square"/>
<path fill-rule="evenodd" clip-rule="evenodd" d="M82.5 8.5C82.5 4.08172 86.0817 0.5 90.5 0.5C128.884 0.5 161.668 24.3935 174.828 58.0898C176.435 62.2054 174.402 66.8447 170.286 68.4519C166.171 70.0592 161.531 68.0258 159.924 63.9102C149.081 36.1462 122.075 16.5 90.5 16.5C86.0817 16.5 82.5 12.9183 82.5 8.5Z" fill="url(#paint1_linear_511_8242)"/>
<path d="M8 91C8 45.4365 44.9365 8.5 90.5 8.5" stroke="url(#paint2_linear_511_8242)" stroke-width="16" stroke-linecap="square"/>
<defs>
<linearGradient id="paint0_linear_511_8242" x1="180" y1="95" x2="95" y2="8" gradientUnits="userSpaceOnUse">
<stop stop-color="#EF4E5E"/>
<stop offset="0.275468" stop-color="#CDB250"/>
<stop offset="0.503462" stop-color="#2DC358"/>
<stop offset="0.864583" stop-color="#1ABAB0"/>
<stop offset="1" stop-color="#1ABAB0"/>
</linearGradient>
<linearGradient id="paint1_linear_511_8242" x1="180" y1="95" x2="95" y2="8" gradientUnits="userSpaceOnUse">
<stop stop-color="#EF4E5E"/>
<stop offset="0.275468" stop-color="#CDB250"/>
<stop offset="0.503462" stop-color="#2DC358"/>
<stop offset="0.864583" stop-color="#1ABAB0"/>
<stop offset="1" stop-color="#1ABAB0"/>
</linearGradient>
<linearGradient id="paint2_linear_511_8242" x1="8" y1="111.204" x2="97.5" y2="8" gradientUnits="userSpaceOnUse">
<stop stop-color="#FF841D"/>
<stop offset="0.307292" stop-color="#CDB250"/>
<stop offset="0.503462" stop-color="#2DC358"/>
<stop offset="0.864583" stop-color="#1ABAB0"/>
<stop offset="1" stop-color="#1ABAB0"/>
</linearGradient>
</defs>
</svg>
