<svg viewBox="0 0 16 16" fill="#000" xmlns="http://www.w3.org/2000/svg">
  <path d="M7.99935 10.0001C8.5549 10.0001 9.02713 9.80564 9.41602 9.41675C9.8049 9.02786 9.99935 8.55564 9.99935 8.00008C9.99935 7.44453 9.8049 6.9723 9.41602 6.58341C9.02713 6.19453 8.5549 6.00008 7.99935 6.00008C7.44379 6.00008 6.97157 6.19453 6.58268 6.58341C6.19379 6.9723 5.99935 7.44453 5.99935 8.00008C5.99935 8.55564 6.19379 9.02786 6.58268 9.41675C6.97157 9.80564 7.44379 10.0001 7.99935 10.0001ZM7.99935 11.3334C7.07713 11.3334 6.29113 11.0083 5.64135 10.3581C4.99113 9.7083 4.66602 8.9223 4.66602 8.00008C4.66602 7.07786 4.99113 6.29164 5.64135 5.64141C6.29113 4.99164 7.07713 4.66675 7.99935 4.66675C8.92157 4.66675 9.70779 4.99164 10.358 5.64141C11.0078 6.29164 11.3327 7.07786 11.3327 8.00008C11.3327 8.9223 11.0078 9.7083 10.358 10.3581C9.70779 11.0083 8.92157 11.3334 7.99935 11.3334ZM0.666016 8.66675V7.33341H3.33268V8.66675H0.666016ZM12.666 8.66675V7.33341H15.3327V8.66675H12.666ZM7.33268 3.33341V0.666748H8.66602V3.33341H7.33268ZM7.33268 15.3334V12.6667H8.66602V15.3334H7.33268ZM4.23268 5.16675L2.58268 3.51675L3.51602 2.58341L5.16602 4.23341L4.23268 5.16675ZM12.4827 13.4167L10.8327 11.7667L11.766 10.8334L13.416 12.4834L12.4827 13.4167ZM11.766 5.16675L10.8327 4.23341L12.4827 2.58341L13.416 3.51675L11.766 5.16675ZM3.51602 13.4167L2.58268 12.4834L4.23268 10.8334L5.16602 11.7667L3.51602 13.4167Z"/>
</svg>
